<svg xmlns="http://www.w3.org/2000/svg" width="100" height="117.192" viewBox="0 0 100 117.192"><defs></defs><g transform="translate(-981.388 -487.883)"><path class="a" d="M1011.2,487.883c-62.441,49.969,16.058,103.936,16.058,103.936s53.509-30.819,49.361-69.463c-9.95,39.406-49.391,54.052-49.391,54.052C971.916,532.919,1000.661,500.111,1011.2,487.883Z" transform="translate(4.543)"/><g transform="translate(991.617 487.883)"><path class="a" d="M1011.2,487.883c-62.441,49.969,16.058,103.936,16.058,103.936s53.509-30.819,49.361-69.463c-9.95,39.406-49.391,54.052-49.391,54.052C971.916,532.919,1000.661,500.111,1011.2,487.883Z" transform="translate(-987.074 -487.883)"/></g><g transform="translate(981.388 495.431)"><path class="a" d="M1060.954,571.693a157.216,157.216,0,0,1-28.118,21.643l-1.409.81-1.339-.919A135.662,135.662,0,0,1,1009,574.41c-14.026-15.37-21.728-31.375-22.272-46.287-.465-12.766,4.14-24.837,13.669-36.045-56.522,48.595,31.025,109.644,31.025,109.644s35.675-25.22,48.532-54.87C1075.7,555.174,1069.354,563.519,1060.954,571.693Z" transform="translate(-981.388 -492.079)"/></g></g></svg>